# Blender 5.0.1
# www.blender.org
mtllib right barrel basic.mtl
o Cube
v 1.003214 0.721143 0.579206
v -1.003214 0.721143 -0.579206
v -0.579206 0.721143 -1.003214
v 0.415531 0.000105 -0.719721
v 0.719721 0.000001 -0.415531
v 0.831062 -0.019602 0.000000
v 0.415531 -0.049426 0.719721
v 0.022212 -0.012164 0.825110
v -0.415531 2.622610 -0.719721
v -0.719721 2.695686 -0.415531
v -0.831062 2.622610 0.000000
v -0.415531 2.622610 0.719721
v 0.022212 2.520338 0.825110
v 0.415531 2.672037 0.719721
v 0.831062 2.562661 0.000000
v 0.719721 2.622610 -0.415531
v 0.415531 2.699577 -0.719721
v -1.032332 1.591697 0.596017
v -1.003214 1.901467 0.579206
v -1.003214 0.721143 0.579206
v -1.032332 1.030913 0.596017
v -0.596017 1.030913 1.032332
v -0.579206 0.721143 1.003214
v -0.579206 1.901467 1.003214
v -0.596017 1.591697 1.032332
v 0.596017 1.591697 -1.032332
v 0.579206 1.901467 -1.003214
v 0.579206 0.721143 -1.003214
v 0.596017 1.030913 -1.032332
v -0.000000 1.030913 -1.192034
v -0.000000 0.721143 -1.158412
v -0.000000 1.901467 -1.158412
v -0.000000 1.591697 -1.192034
v -0.596017 1.591697 -1.032332
v -0.579206 1.901467 -1.003214
v -0.596017 1.030913 -1.032332
v -1.032332 1.030913 -0.596017
v -1.003214 1.901467 -0.579206
v -1.032332 1.591697 -0.596017
v 1.032332 1.591697 0.596017
v 1.003214 1.901467 0.579206
v 1.032332 1.030913 0.596017
v 1.192034 1.030913 0.000000
v 1.158412 1.901467 0.000000
v 1.192034 1.591697 0.000000
v -0.000000 1.030913 1.192034
v -0.000000 0.721143 1.158412
v -0.000000 1.901467 1.158412
v -0.000000 1.591697 1.192034
v -1.192034 1.030913 0.000000
v -1.158412 1.901467 0.000000
v -1.192034 1.591697 0.000000
v 1.032332 1.030913 -0.596017
v 1.003214 0.721143 -0.579206
v 1.003214 1.901467 -0.579206
v 1.032332 1.591697 -0.596017
v 0.596017 1.030913 1.032332
v 0.579206 0.721143 1.003214
v 0.579206 1.901467 1.003214
v 0.596017 1.591697 1.032332
v -0.415531 0.000001 0.719721
v -0.831062 0.000001 0.000000
v -0.719721 0.001277 -0.415531
v -0.415531 0.000001 -0.719721
v -0.500000 2.622610 -0.866025
v -0.866025 2.695686 -0.500000
v -1.000000 2.622610 0.000000
v -0.500000 2.622610 0.866025
v 0.026727 2.520338 0.992838
v 0.500000 2.672037 0.866025
v 1.000000 2.562661 0.000000
v 0.866025 2.622610 -0.500000
v 0.500000 2.699577 -0.866025
v 0.000000 2.423172 -0.831062
v 0.244017 2.423172 -0.455342
v 0.719721 2.423172 -0.415531
v 0.438996 2.423172 0.272329
v 0.831062 2.423172 0.000000
v 0.415531 2.423172 0.719721
v -0.415531 2.423172 -0.719721
v -0.438996 2.423172 -0.272329
v -0.244017 2.423172 0.455342
v 0.000000 2.423172 0.831062
v -0.831062 2.423172 0.000000
v -0.719721 2.423172 0.415531
v -0.719721 2.423172 -0.415531
v -0.415531 2.423172 0.719721
v 0.719721 2.423172 0.415531
v 0.415531 2.423172 -0.719721
v -0.743370 2.639631 0.327270
v -0.655109 2.639631 0.480142
v -0.719721 2.552732 0.415531
v -0.801389 2.640405 0.564637
v -0.889684 2.640405 0.411705
v -0.882552 2.554744 0.509542
v 0.683042 2.658936 0.452209
v 0.733105 2.625044 0.365580
v 0.719721 2.509191 0.415531
v 0.879449 2.628132 0.449902
v 0.829273 2.656370 0.536753
v 0.875727 2.512321 0.505601
v 0.076286 2.636740 -0.810621
v -0.077498 2.622610 -0.810296
v 0.000000 2.542379 -0.831062
v -0.077498 2.622610 -0.979235
v 0.076655 2.634410 -0.979460
v -0.000000 2.544247 -1.017214
v 1.158412 0.721143 0.000000
v -1.158412 0.721143 0.000000
v -0.500000 0.000001 -0.866025
v -0.866025 0.001277 -0.500000
v -1.000000 0.000001 0.000000
v -0.500000 0.000001 0.866025
v 0.026727 -0.012164 0.992838
v 0.500000 -0.049426 0.866025
v 1.000000 -0.019602 0.000000
v 0.866025 0.000001 -0.500000
v 0.500000 0.000105 -0.866025
v 0.000000 0.199439 -0.831062
v 0.244017 0.199439 -0.455342
v 0.719721 0.199439 -0.415531
v 0.438996 0.199440 0.272329
v 0.831062 0.199439 0.000000
v 0.415531 0.199439 0.719721
v -0.415531 0.199439 -0.719721
v -0.438996 0.199439 -0.272329
v -0.244017 0.199439 0.455342
v 0.000000 0.199439 0.831062
v -0.831062 0.199439 0.000000
v -0.719721 0.199439 0.415531
v -0.719721 0.199439 -0.415531
v -0.415531 0.199439 0.719721
v 0.719721 0.199439 0.415531
v 0.415531 0.199439 -0.719721
v -0.743370 -0.017020 0.327270
v -0.655109 -0.017020 0.480142
v -0.719721 0.069880 0.415531
v -0.801389 -0.017794 0.564637
v -0.889684 -0.017794 0.411705
v -0.882552 0.067867 0.509542
v 0.683042 -0.036325 0.452209
v 0.733105 -0.002433 0.365580
v 0.719721 0.113420 0.415531
v 0.879449 -0.005521 0.449902
v 0.829273 -0.033759 0.536753
v 0.875727 0.110290 0.505601
v 0.076286 -0.014129 -0.810621
v -0.077498 0.000001 -0.810296
v 0.000000 0.080232 -0.831062
v -0.077498 0.000001 -0.979235
v 0.076655 -0.011799 -0.979460
v -0.000000 0.078364 -1.017214
vn -0.7071 -0.0000 0.7071
vn -0.9659 -0.0000 0.2588
vn -0.0000 -1.0000 -0.0000
vn -0.2588 -0.0000 0.9659
vn -0.2202 0.2315 0.9476
vn 0.7027 0.1974 -0.6835
vn 0.2588 -0.0000 -0.9659
vn 0.7071 -0.0000 -0.7071
vn -0.0002 -1.0000 -0.0002
vn -0.0107 -0.9991 -0.0399
vn -0.2588 -0.0000 -0.9659
vn -0.7071 -0.0000 -0.7071
vn -0.6839 0.1979 -0.7022
vn -0.0797 -0.9966 0.0226
vn -0.0238 -0.9997 -0.0060
vn -0.9659 -0.0000 -0.2588
vn -0.9501 0.1979 -0.2412
vn 0.9659 -0.0000 0.2588
vn 0.7071 -0.0000 0.7071
vn 0.0007 -1.0000 -0.0026
vn -0.0019 -1.0000 0.0019
vn 0.2465 0.0273 -0.9688
vn 0.9659 -0.0000 -0.2588
vn 0.9460 0.2161 -0.2415
vn 0.2588 -0.0000 0.9659
vn 0.2236 0.2156 0.9505
vn 0.2418 -0.0376 -0.9696
vn 0.2470 -0.1995 0.9482
vn 0.9445 -0.2049 -0.2568
vn -0.9448 -0.2077 -0.2534
vn -0.6918 -0.2077 -0.6915
vn 0.6917 -0.2076 -0.6917
vn -0.2435 -0.2146 0.9458
vn 0.1078 0.9883 -0.1078
vn -0.0394 0.9883 0.1472
vn 0.1957 0.9794 0.0498
vn -0.3082 0.9473 0.0873
vn 0.0325 0.9921 0.1212
vn 0.1134 0.9871 0.1134
vn -0.0000 1.0000 -0.0000
vn -0.3452 0.7141 -0.6090
vn 0.3548 0.7141 0.6035
vn 0.0338 0.9990 0.0305
vn -0.0095 0.9990 -0.0445
vn -0.9465 0.2047 0.2496
vn -0.6894 0.2047 0.6949
vn -0.4650 0.3955 0.7920
vn 0.4730 0.3231 -0.8197
vn 0.0296 0.9887 -0.1471
vn 0.0297 0.9994 -0.0185
vn 0.7063 0.1987 0.6795
vn 0.9432 0.2161 0.2525
vn -0.7697 0.6384 -0.0016
vn 0.7159 0.6982 0.0037
vn -0.1527 0.9871 -0.0484
vn 0.2407 0.1974 -0.9503
vn -0.2532 0.2076 -0.9449
vn -0.3452 -0.7141 -0.6090
vn 0.3548 -0.7141 0.6035
vn 0.0338 -0.9990 0.0305
vn -0.0095 -0.9990 -0.0445
vn -0.9465 -0.2047 0.2496
vn -0.6894 -0.2047 0.6949
vn -0.4650 -0.3955 0.7920
vn 0.4730 -0.3231 -0.8197
vn -0.0187 -0.9993 0.0333
vn 0.0297 -0.9994 -0.0185
vn 0.7063 -0.1987 0.6795
vn 0.9414 -0.2057 0.2673
vn -0.7697 -0.6384 -0.0016
vn 0.7159 -0.6982 0.0037
vn 0.0338 -0.9994 0.0017
vn 0.2535 -0.2061 -0.9451
vn -0.2532 -0.2076 -0.9449
vt 0.797590 0.505458
vt 0.906709 0.572613
vt 0.838537 0.641855
vt 0.774127 0.599114
vt 0.669613 0.504448
vt 0.698218 0.596395
vt 0.683791 0.198218
vt 0.719050 0.176445
vt 0.755339 0.201399
vt 0.698062 0.241253
vt 0.797714 0.261011
vt 0.825686 0.221321
vt 0.831177 0.265279
vt 0.811051 0.303991
vt 0.800963 0.186823
vt 0.967946 0.684755
vt 0.874376 0.713997
vt 0.436578 0.077433
vt 0.495720 0.203362
vt 0.378630 0.232568
vt 0.339564 0.163955
vt 0.161825 0.504649
vt 0.043154 0.426413
vt 0.149001 0.336349
vt 0.198007 0.378362
vt 0.560565 0.924734
vt 0.496017 0.811614
vt 0.590385 0.782873
vt 0.628324 0.852998
vt 0.672893 0.990422
vt 0.695456 0.894780
vt 0.761785 0.169819
vt 0.764993 0.144798
vt 0.766493 0.122851
vt 0.830887 0.150818
vt 0.816821 0.168365
vt 0.869015 0.207219
vt 0.848018 0.213094
vt 0.496017 0.681758
vt 0.591799 0.703152
vt 0.559824 0.569689
vt 0.632000 0.634992
vt 0.000149 0.182361
vt 0.065802 0.054732
vt 0.162665 0.161474
vt 0.124828 0.215961
vt 0.830997 0.320203
vt 0.847970 0.331466
vt 0.798580 0.370544
vt 0.790272 0.350974
vt 0.724749 0.380596
vt 0.730142 0.357540
vt 0.199459 0.000148
vt 0.220269 0.127746
vt 0.912906 0.923798
vt 0.802508 0.990193
vt 0.773423 0.897082
vt 0.840614 0.859620
vt 0.972555 0.810841
vt 0.878219 0.792825
vt 0.648740 0.289836
vt 0.628923 0.298987
vt 0.617110 0.228917
vt 0.640500 0.232998
vt 0.651838 0.167565
vt 0.666990 0.182545
vt 0.734909 0.332552
vt 0.777546 0.328378
vt 0.300598 0.504649
vt 0.272207 0.386277
vt 0.666271 0.237391
vt 0.670256 0.280189
vt 0.493577 0.345892
vt 0.369788 0.304158
vt 0.206956 0.356853
vt 0.163851 0.325839
vt 0.186328 0.309799
vt 0.218335 0.336084
vt 0.353681 0.237001
vt 0.352395 0.296214
vt 0.330097 0.285890
vt 0.338047 0.237460
vt 0.266403 0.362056
vt 0.263365 0.343488
vt 0.175617 0.175857
vt 0.224644 0.151352
vt 0.230007 0.175894
vt 0.193317 0.195173
vt 0.325482 0.179729
vt 0.311830 0.197228
vt 0.836465 0.504151
vt 0.959001 0.421160
vt 0.999851 0.156831
vt 0.908020 0.041820
vt 0.496017 0.207157
vt 0.506142 0.344479
vt 0.554348 0.084511
vt 0.776615 0.000149
vt 0.694862 0.504151
vt 0.146837 0.221738
vt 0.169671 0.271990
vt 0.209617 0.289146
vt 0.284683 0.295563
vt 0.306000 0.322473
vt 0.170644 0.229605
vt 0.213499 0.219608
vt 0.290052 0.223140
vt 0.272880 0.179002
vt 0.294346 0.160837
vt 0.277459 0.163494
vt 0.287036 0.131513
vt 0.296258 0.146347
vt 0.264578 0.151864
vt 0.271075 0.138550
vt 0.324145 0.018659
vt 0.304585 0.346411
vt 0.313313 0.330752
vt 0.336840 0.357097
vt 0.315210 0.355543
vt 0.332395 0.322294
vt 0.339692 0.332334
vt 0.409641 0.443618
vt 0.155187 0.275927
vt 0.149509 0.292180
vt 0.134887 0.292765
vt 0.122476 0.282578
vt 0.144365 0.263625
vt 0.130170 0.268965
vt 0.004031 0.305178
vt 0.741845 0.300667
vt 0.696732 0.313638
vt 0.693649 0.341451
vt 0.682564 0.351049
vt 0.664993 0.351334
vt 0.686491 0.325856
vt 0.662469 0.333978
vt 0.670025 0.321509
vt 0.588109 0.440828
vt 0.850200 0.251435
vt 0.864453 0.255120
vt 0.876605 0.273544
vt 0.842056 0.267230
vt 0.856979 0.288983
vt 0.844475 0.287874
vt 0.999561 0.292373
vt 0.714561 0.162366
vt 0.703635 0.132197
vt 0.718736 0.138080
vt 0.724850 0.149363
vt 0.699145 0.159937
vt 0.696334 0.145592
vt 0.661356 0.025324
s 0
usemtl Material.002
f 21/1/1 22/2/1 25/3/1 18/4/1
f 50/5/2 21/1/2 18/4/2 52/6/2
f 125/7/3 119/8/3 120/9/3 126/10/3
f 122/11/3 123/12/3 133/13/3 124/14/3
f 120/9/3 121/15/3 123/12/3 122/11/3
f 22/2/4 46/16/4 49/17/4 25/3/4
f 24/18/5 48/19/5 69/20/5 68/21/5
f 55/22/6 27/23/6 73/24/6 72/25/6
f 29/26/7 30/27/7 33/28/7 26/29/7
f 53/30/8 29/26/8 26/29/8 56/31/8
f 119/8/3 134/32/3 121/15/3 120/9/3
f 4/33/9 118/34/9 117/35/9 5/36/9
f 5/36/10 117/35/10 116/37/10 6/38/10
f 30/27/11 36/39/11 34/40/11 33/28/11
f 36/39/12 37/41/12 39/42/12 34/40/12
f 35/43/13 38/44/13 66/45/13 65/46/13
f 7/47/14 115/48/14 114/49/14 8/50/14
f 8/50/15 114/49/15 113/51/15 61/52/15
f 37/41/16 50/5/16 52/6/16 39/42/16
f 38/44/17 51/53/17 67/54/17 66/45/17
f 42/55/18 43/56/18 45/57/18 40/58/18
f 57/59/19 42/55/19 40/58/19 60/60/19
f 62/61/20 112/62/20 111/63/20 63/64/20
f 63/64/21 111/63/21 110/65/21 64/66/21
f 61/52/22 132/67/22 128/68/22 8/50/22
f 43/56/23 53/30/23 56/31/23 45/57/23
f 44/69/24 55/22/24 72/25/24 71/70/24
f 63/64/18 131/71/18 129/72/18 62/61/18
f 46/16/25 57/59/25 60/60/25 49/17/25
f 48/19/26 59/73/26 70/74/26 69/20/26
f 16/75/1 17/76/1 89/77/1 76/78/1
f 13/79/11 14/80/11 79/81/11 83/82/11
f 15/83/2 16/75/2 76/78/2 78/84/2
f 10/85/18 11/86/18 84/87/18 86/88/18
f 12/89/27 13/79/27 83/82/27 87/90/27
f 6/38/2 123/12/2 121/15/2 5/36/2
f 8/50/11 128/68/11 124/14/11 7/47/11
f 5/36/1 121/15/1 134/32/1 4/33/1
f 47/91/28 114/49/28 115/48/28 58/92/28
f 108/93/29 116/37/29 117/35/29 54/94/29
f 2/95/30 111/63/30 112/62/30 109/96/30
f 3/97/31 110/65/31 111/63/31 2/95/31
f 54/94/32 117/35/32 118/34/32 28/98/32
f 23/99/33 113/51/33 114/49/33 47/91/33
f 10/85/34 9/100/34 65/46/34 66/45/34
f 11/86/35 10/85/35 66/45/35 67/54/35
f 13/79/36 12/89/36 68/21/36 69/20/36
f 14/80/37 13/79/37 69/20/37 70/74/37
f 16/75/38 15/83/38 71/70/38 72/25/38
f 17/76/39 16/75/39 72/25/39 73/24/39
f 74/101/40 75/102/40 76/78/40 89/77/40
f 75/102/40 77/103/40 78/84/40 76/78/40
f 77/103/40 79/81/40 88/104/40 78/84/40
f 80/105/40 81/106/40 75/102/40 74/101/40
f 81/106/40 82/107/40 77/103/40 75/102/40
f 82/107/40 83/82/40 79/81/40 77/103/40
f 86/88/40 84/87/40 81/106/40 80/105/40
f 84/87/40 85/108/40 82/107/40 81/106/40
f 85/108/40 87/90/40 83/82/40 82/107/40
f 9/100/19 10/85/19 86/88/19 80/105/19
f 91/109/41 92/110/41 95/111/41 93/112/41
f 92/110/42 90/113/42 94/114/42 95/111/42
f 92/110/8 91/109/8 12/89/8 87/90/8 85/108/8
f 12/89/43 91/109/43 93/112/43 68/21/43
f 11/86/23 90/113/23 92/110/23 85/108/23 84/87/23
f 90/113/44 11/86/44 67/54/44 94/114/44
f 51/53/45 19/115/45 95/111/45 94/114/45 67/54/45
f 19/115/46 24/18/46 68/21/46 93/112/46 95/111/46
f 97/116/47 98/117/47 101/118/47 99/119/47
f 98/117/48 96/120/48 100/121/48 101/118/48
f 98/117/16 97/116/16 15/83/16 78/84/16 88/104/16
f 15/83/49 97/116/49 99/119/49 71/70/49
f 14/80/12 96/120/12 98/117/12 88/104/12 79/81/12
f 96/120/50 14/80/50 70/74/50 100/121/50
f 59/73/51 41/122/51 101/118/51 100/121/51 70/74/51
f 41/122/52 44/69/52 71/70/52 99/119/52 101/118/52
f 104/123/53 102/124/53 106/125/53 107/126/53
f 103/127/54 104/123/54 107/126/54 105/128/54
f 17/76/4 102/124/4 104/123/4 74/101/4 89/77/4
f 104/123/25 103/127/25 9/100/25 80/105/25 74/101/25
f 102/124/55 17/76/55 73/24/55 106/125/55
f 9/100/40 103/127/40 105/128/40 65/46/40
f 27/23/56 32/129/56 107/126/56 106/125/56 73/24/56
f 32/129/57 35/43/57 65/46/57 105/128/57 107/126/57
f 126/10/3 120/9/3 122/11/3 127/130/3
f 127/130/3 122/11/3 124/14/3 128/68/3
f 131/71/3 125/7/3 126/10/3 129/72/3
f 129/72/3 126/10/3 127/130/3 130/131/3
f 130/131/3 127/130/3 128/68/3 132/67/3
f 64/66/19 125/7/19 131/71/19 63/64/19
f 136/132/58 138/133/58 140/134/58 137/135/58
f 137/135/59 140/134/59 139/136/59 135/137/59
f 137/135/8 130/131/8 132/67/8 61/52/8 136/132/8
f 61/52/60 113/51/60 138/133/60 136/132/60
f 62/61/23 129/72/23 130/131/23 137/135/23 135/137/23
f 135/137/61 139/136/61 112/62/61 62/61/61
f 109/96/62 112/62/62 139/136/62 140/134/62 20/138/62
f 20/138/63 140/134/63 138/133/63 113/51/63 23/99/63
f 142/139/64 144/140/64 146/141/64 143/142/64
f 143/142/65 146/141/65 145/143/65 141/144/65
f 143/142/16 133/13/16 123/12/16 6/38/16 142/139/16
f 6/38/66 116/37/66 144/140/66 142/139/66
f 7/47/12 124/14/12 133/13/12 143/142/12 141/144/12
f 141/144/67 145/143/67 115/48/67 7/47/67
f 58/92/68 115/48/68 145/143/68 146/141/68 1/145/68
f 1/145/69 146/141/69 144/140/69 116/37/69 108/93/69
f 149/146/70 152/147/70 151/148/70 147/149/70
f 148/150/71 150/151/71 152/147/71 149/146/71
f 4/33/4 134/32/4 119/8/4 149/146/4 147/149/4
f 149/146/25 119/8/25 125/7/25 64/66/25 148/150/25
f 147/149/72 151/148/72 118/34/72 4/33/72
f 64/66/3 110/65/3 150/151/3 148/150/3
f 28/98/73 118/34/73 151/148/73 152/147/73 31/152/73
f 31/152/74 152/147/74 150/151/74 110/65/74 3/97/74
o Cube.001
v 1.003214 0.721143 0.579206
v -1.003214 0.721143 -0.579206
v -0.579206 0.721143 -1.003214
v 1.076890 1.597281 -0.621743
v 1.047772 1.907052 -0.604931
v 0.604931 1.907052 -1.047772
v 0.621743 1.597281 -1.076890
v 1.047772 0.715558 -0.604931
v 1.076890 1.025329 -0.621743
v 0.621743 1.025329 -1.076890
v 0.604931 0.715558 -1.047772
v -0.000000 1.597281 -1.243485
v -0.000000 1.907052 -1.209863
v -0.604931 1.907052 -1.047772
v -0.621743 1.597281 -1.076890
v -0.000000 0.715558 -1.209863
v -0.000000 1.025329 -1.243485
v -0.621743 1.025329 -1.076890
v -0.604931 0.715558 -1.047772
v 0.621743 1.597281 1.076890
v 0.604931 1.907052 1.047772
v 1.047772 1.907052 0.604931
v 1.076890 1.597281 0.621743
v 0.604931 0.715558 1.047772
v 0.621743 1.025329 1.076890
v 1.076890 1.025329 0.621743
v 1.047772 0.715558 0.604931
v -1.032332 1.591697 0.596017
v -1.003214 1.901467 0.579206
v -1.003214 0.721143 0.579206
v -1.032332 1.030913 0.596017
v -0.596017 1.030913 1.032332
v -0.579206 0.721143 1.003214
v -0.579206 1.901467 1.003214
v -0.596017 1.591697 1.032332
v 0.596017 1.591697 -1.032332
v 0.579206 1.901467 -1.003214
v 0.579206 0.721143 -1.003214
v 0.596017 1.030913 -1.032332
v -0.000000 1.030913 -1.192034
v -0.000000 0.721143 -1.158412
v -0.000000 1.901467 -1.158412
v -0.000000 1.591697 -1.192034
v -0.596017 1.591697 -1.032332
v -0.579206 1.901467 -1.003214
v -0.596017 1.030913 -1.032332
v -1.032332 1.030913 -0.596017
v -1.003214 1.901467 -0.579206
v -1.032332 1.591697 -0.596017
v 1.032332 1.591697 0.596017
v 1.003214 1.901467 0.579206
v 1.032332 1.030913 0.596017
v 1.192034 1.030913 0.000000
v 1.158412 1.901467 0.000000
v 1.192034 1.591697 0.000000
v -0.000000 1.030913 1.192034
v -0.000000 0.721143 1.158412
v -0.000000 1.901467 1.158412
v -0.000000 1.591697 1.192034
v -1.192034 1.030913 0.000000
v -1.158412 1.901467 0.000000
v -1.192034 1.591697 0.000000
v 1.032332 1.030913 -0.596017
v 1.003214 0.721143 -0.579206
v 1.003214 1.901467 -0.579206
v 1.032332 1.591697 -0.596017
v 0.596017 1.030913 1.032332
v 0.579206 0.721143 1.003214
v 0.579206 1.901467 1.003214
v 0.596017 1.591697 1.032332
v -1.047772 0.715558 0.604931
v -1.076890 1.025329 0.621743
v -1.243485 1.025329 0.000000
v -1.209863 0.715558 0.000000
v -1.076890 1.597281 0.621743
v -1.047772 1.907052 0.604931
v -1.209863 1.907052 0.000000
v -1.243485 1.597281 0.000000
v -0.000000 1.025329 1.243485
v -0.000000 0.715558 1.209863
v -0.000000 1.907052 1.209863
v -0.000000 1.597281 1.243485
v 1.243485 1.025329 0.000000
v 1.209863 0.715558 0.000000
v 1.209863 1.907052 0.000000
v 1.243485 1.597281 0.000000
v -1.076890 1.025329 -0.621743
v -1.047772 0.715558 -0.604931
v -1.047772 1.907052 -0.604931
v -1.076890 1.597281 -0.621743
v -0.621743 1.025329 1.076890
v -0.604931 0.715558 1.047772
v -0.604931 1.907052 1.047772
v -0.621743 1.597281 1.076890
v 1.158412 0.721143 0.000000
v -1.158412 0.721143 0.000000
vn -0.2574 0.1043 0.9607
vn -0.2574 -0.1043 0.9607
vn -0.9607 0.1043 -0.2574
vn -0.9607 -0.1043 -0.2574
vn 0.9607 0.1043 -0.2574
vn 0.9607 -0.1043 -0.2574
vn 0.2574 0.1043 0.9607
vn 0.2574 -0.1043 0.9607
vn -0.9607 0.1043 0.2574
vn -0.9607 -0.1043 0.2574
vn 0.7033 0.1043 -0.7033
vn 0.7033 -0.1043 -0.7033
vn -0.2574 0.1043 -0.9607
vn -0.2574 -0.1043 -0.9607
vn 0.7033 0.1043 0.7033
vn 0.7033 -0.1043 0.7033
vn -0.0289 -0.9937 -0.1079
vn -0.0289 -0.9937 0.1079
vn 0.0790 0.9937 0.0790
vn -0.0790 0.9937 0.0790
vn -0.1079 0.9937 0.0289
vn 0.1079 -0.9937 -0.0289
vn 0.0289 -0.9937 -0.1079
vn -0.1079 -0.9937 0.0289
vn 0.0289 0.9937 0.1079
vn 0.0289 0.9937 -0.1079
vn -0.0289 0.9937 0.1079
vn -0.7033 0.1043 0.7033
vn -0.7033 -0.1043 0.7033
vn 0.2574 0.1043 -0.9607
vn 0.2574 -0.1043 -0.9607
vn -0.7033 0.1043 -0.7033
vn -0.7033 -0.1043 -0.7033
vn 0.9607 0.1043 0.2574
vn 0.9607 -0.1043 0.2574
vn 0.1079 0.9937 -0.0289
vn 0.0289 -0.9937 0.1079
vn 0.0790 -0.9937 -0.0790
vn -0.0790 -0.9937 -0.0790
vn -0.0289 0.9937 -0.1079
vn -0.1079 -0.9937 -0.0289
vn 0.0790 -0.9937 0.0790
vn 0.1079 0.9937 0.0289
vn -0.0790 0.9937 -0.0790
vn 0.1079 -0.9937 0.0289
vn -0.0790 -0.9937 0.0790
vn 0.0790 0.9937 -0.0790
vn -0.1079 0.9937 -0.0289
vt 0.000000 0.000000
s 0
usemtl Material.001
f 233/153/75 245/153/75 246/153/75 234/153/75
f 231/153/76 243/153/76 244/153/76 232/153/76
f 229/153/77 241/153/77 242/153/77 230/153/77
f 225/153/78 239/153/78 240/153/78 226/153/78
f 157/153/79 237/153/79 238/153/79 156/153/79
f 161/153/80 235/153/80 236/153/80 160/153/80
f 173/153/81 233/153/81 234/153/81 172/153/81
f 177/153/82 231/153/82 232/153/82 176/153/82
f 228/153/83 229/153/83 230/153/83 227/153/83
f 224/153/84 225/153/84 226/153/84 223/153/84
f 158/153/85 157/153/85 156/153/85 159/153/85
f 162/153/86 161/153/86 160/153/86 163/153/86
f 166/153/87 165/153/87 164/153/87 167/153/87
f 170/153/88 169/153/88 168/153/88 171/153/88
f 174/153/89 173/153/89 172/153/89 175/153/89
f 178/153/90 177/153/90 176/153/90 179/153/90
f 195/153/91 196/153/91 167/153/91 164/153/91
f 187/153/92 211/153/92 234/153/92 246/153/92
f 204/153/93 219/153/93 177/153/93 178/153/93
f 184/153/94 183/153/94 224/153/94 243/153/94
f 217/153/95 206/153/95 237/153/95 157/153/95
f 248/153/96 182/153/96 223/153/96 226/153/96
f 188/153/97 195/153/97 164/153/97 159/153/97
f 247/153/98 216/153/98 160/153/98 236/153/98
f 197/153/99 194/153/99 165/153/99 166/153/99
f 210/153/100 186/153/100 245/153/100 233/153/100
f 194/153/101 189/153/101 158/153/101 165/153/101
f 185/153/97 209/153/97 232/153/97 244/153/97
f 245/153/102 228/153/102 227/153/102 246/153/102
f 243/153/103 224/153/103 223/153/103 244/153/103
f 165/153/104 158/153/104 159/153/104 164/153/104
f 169/153/105 162/153/105 163/153/105 168/153/105
f 241/153/106 166/153/106 167/153/106 242/153/106
f 239/153/107 170/153/107 171/153/107 240/153/107
f 237/153/108 174/153/108 175/153/108 238/153/108
f 235/153/109 178/153/109 179/153/109 236/153/109
f 183/153/95 212/153/95 225/153/95 224/153/95
f 190/153/92 193/153/92 168/153/92 163/153/92
f 215/153/110 205/153/110 235/153/110 161/153/110
f 193/153/111 155/153/111 171/153/111 168/153/111
f 192/153/100 191/153/100 162/153/100 169/153/100
f 211/153/111 222/153/111 172/153/111 234/153/111
f 208/153/101 184/153/101 243/153/101 231/153/101
f 218/153/112 188/153/112 159/153/112 156/153/112
f 196/153/113 201/153/113 242/153/113 167/153/113
f 198/153/114 192/153/114 169/153/114 170/153/114
f 201/153/115 214/153/115 230/153/115 242/153/115
f 200/153/93 197/153/93 166/153/93 241/153/93
f 221/153/114 210/153/114 233/153/114 173/153/114
f 189/153/94 217/153/94 157/153/94 158/153/94
f 155/153/116 154/153/116 240/153/116 171/153/116
f 209/153/91 220/153/91 176/153/91 232/153/91
f 222/153/116 202/153/116 175/153/116 172/153/116
f 213/153/117 200/153/117 241/153/117 229/153/117
f 199/153/118 198/153/118 170/153/118 239/153/118
f 154/153/119 248/153/119 226/153/119 240/153/119
f 216/153/120 190/153/120 163/153/120 160/153/120
f 202/153/119 207/153/119 238/153/119 175/153/119
f 219/153/99 208/153/99 231/153/99 177/153/99
f 203/153/118 221/153/118 173/153/118 174/153/118
f 182/153/112 185/153/112 244/153/112 223/153/112
f 181/153/110 213/153/110 229/153/110 228/153/110
f 205/153/117 204/153/117 178/153/117 235/153/117
f 207/153/96 218/153/96 156/153/96 238/153/96
f 186/153/121 181/153/121 228/153/121 245/153/121
f 220/153/113 153/153/113 179/153/113 176/153/113
f 153/153/115 247/153/115 236/153/115 179/153/115
f 191/153/121 215/153/121 161/153/121 162/153/121
f 212/153/122 199/153/122 239/153/122 225/153/122
f 180/153/120 187/153/120 246/153/120 227/153/120
f 214/153/98 180/153/98 227/153/98 230/153/98
f 206/153/122 203/153/122 174/153/122 237/153/122
